<?xml version="1.0" encoding="UTF-8"?><svg id="Layer_2" xmlns="http://www.w3.org/2000/svg" viewBox="0 0 252.78 350.68"><defs><style>.cls-1{fill:#2257ff;}</style></defs><g id="Layer_1-2"><g><path class="cls-1" d="M252.78,180.29c0,45.28-28.07,85.83-70.44,101.77L0,350.68v-100.09l182.34-68.59c24.19-9.1,43.72-26.22,56.01-47.65,9.03,12.83,14.44,28.55,14.44,45.95Z"/><path class="cls-1" d="M252.78,80.21c0,19.43-5.17,38.01-14.44,54.12-14.79-21.04-39.28-34.26-65.63-34.26-9.33,0-18.87,1.66-28.31,5.2L0,159.63V59.53L144.41,5.2c9.44-3.56,19-5.2,28.33-5.2,42.43,0,80.05,34.3,80.05,80.21Z"/></g></g></svg>